<?xml version="1.0" encoding="UTF-8"?>
<svg xmlns="http://www.w3.org/2000/svg" xmlns:xlink="http://www.w3.org/1999/xlink" width="600" height="450" viewBox="0 0 600 450">
<defs>
<g>
<g id="glyph-0-0-bfc1dc0f">
<path d="M 7.1875 -4.921875 C 7.1875 -2.40625 6.265625 0.171875 4.0625 0.171875 C 1.875 0.171875 0.953125 -2.40625 0.953125 -4.921875 C 0.953125 -7.59375 1.765625 -10.375 4.0625 -10.375 C 6.375 -10.375 7.1875 -7.59375 7.1875 -4.921875 Z M 6.03125 -5.453125 C 5.984375 -7.359375 5.703125 -9.3125 4.0625 -9.3125 C 2.4375 -9.3125 2.140625 -7.359375 2.09375 -5.453125 C 2.09375 -5.453125 6.03125 -5.453125 6.03125 -5.453125 Z M 6.015625 -4.390625 C 6.015625 -4.390625 2.109375 -4.390625 2.109375 -4.390625 C 2.171875 -2.625 2.578125 -0.890625 4.0625 -0.890625 C 5.5625 -0.890625 5.96875 -2.625 6.015625 -4.390625 Z M 6.015625 -4.390625 "/>
</g>
<g id="glyph-0-1-bfc1dc0f">
<path d="M 4.859375 0 C 4.859375 0 3.625 0 3.625 0 C 3.625 0 3.625 -7.0625 3.625 -7.0625 C 3.625 -7.0625 1.421875 -7.0625 1.421875 -7.0625 C 1.421875 -7.0625 1.421875 -7.953125 1.421875 -7.953125 C 3.328125 -8.1875 3.609375 -8.40625 4.046875 -9.921875 C 4.046875 -9.921875 4.859375 -9.921875 4.859375 -9.921875 C 4.859375 -9.921875 4.859375 0 4.859375 0 Z M 4.859375 0 "/>
</g>
<g id="glyph-0-2-bfc1dc0f">
<path d="M 2.671875 0 C 2.671875 0 1.21875 0 1.21875 0 C 1.21875 0 1.21875 -1.453125 1.21875 -1.453125 C 1.21875 -1.453125 2.671875 -1.453125 2.671875 -1.453125 C 2.671875 -1.453125 2.671875 0 2.671875 0 Z M 2.671875 0 "/>
</g>
<g id="glyph-0-3-bfc1dc0f">
<path d="M 7.1875 -3.296875 C 7.1875 -1.1875 5.78125 0.203125 3.78125 0.203125 C 2.015625 0.203125 0.890625 -0.578125 0.484375 -2.546875 C 0.484375 -2.546875 1.71875 -2.546875 1.71875 -2.546875 C 2.015625 -1.421875 2.671875 -0.875 3.75 -0.875 C 5.09375 -0.875 5.921875 -1.6875 5.921875 -3.125 C 5.921875 -4.59375 5.078125 -5.453125 3.75 -5.453125 C 2.984375 -5.453125 2.5 -5.203125 1.9375 -4.515625 C 1.9375 -4.515625 0.796875 -4.515625 0.796875 -4.515625 C 0.796875 -4.515625 1.546875 -9.71875 1.546875 -9.71875 C 1.546875 -9.71875 6.65625 -9.71875 6.65625 -9.71875 C 6.65625 -9.71875 6.65625 -8.5 6.65625 -8.5 C 6.65625 -8.5 2.53125 -8.5 2.53125 -8.5 C 2.53125 -8.5 2.140625 -5.9375 2.140625 -5.9375 C 2.71875 -6.359375 3.28125 -6.53125 3.96875 -6.53125 C 5.875 -6.53125 7.1875 -5.25 7.1875 -3.296875 Z M 7.1875 -3.296875 "/>
</g>
<g id="glyph-0-4-bfc1dc0f">
<path d="M 7.09375 -4.78125 C 7.09375 -1.515625 5.953125 0.203125 3.84375 0.203125 C 1.71875 0.203125 0.609375 -1.515625 0.609375 -4.859375 C 0.609375 -8.1875 1.703125 -9.921875 3.84375 -9.921875 C 6 -9.921875 7.09375 -8.21875 7.09375 -4.78125 Z M 5.84375 -4.890625 C 5.84375 -7.546875 5.1875 -8.828125 3.84375 -8.828125 C 2.515625 -8.828125 1.859375 -7.5625 1.859375 -4.84375 C 1.859375 -2.125 2.515625 -0.8125 3.828125 -0.8125 C 5.1875 -0.8125 5.84375 -2.078125 5.84375 -4.890625 Z M 5.84375 -4.890625 "/>
</g>
<g id="glyph-0-5-bfc1dc0f">
<path d="M 7.15625 -7.015625 C 7.15625 -5.796875 6.4375 -4.765625 5.046875 -4.015625 C 5.046875 -4.015625 3.65625 -3.265625 3.65625 -3.265625 C 2.4375 -2.546875 1.984375 -2.03125 1.859375 -1.21875 C 1.859375 -1.21875 7.078125 -1.21875 7.078125 -1.21875 C 7.078125 -1.21875 7.078125 0 7.078125 0 C 7.078125 0 0.46875 0 0.46875 0 C 0.59375 -2.1875 1.1875 -3.125 3.265625 -4.296875 C 3.265625 -4.296875 4.546875 -5.03125 4.546875 -5.03125 C 5.4375 -5.53125 5.890625 -6.203125 5.890625 -6.984375 C 5.890625 -8.046875 5.046875 -8.84375 3.9375 -8.84375 C 2.71875 -8.84375 2.03125 -8.140625 1.9375 -6.484375 C 1.9375 -6.484375 0.703125 -6.484375 0.703125 -6.484375 C 0.765625 -8.890625 1.953125 -9.921875 3.96875 -9.921875 C 5.859375 -9.921875 7.15625 -8.6875 7.15625 -7.015625 Z M 7.15625 -7.015625 "/>
</g>
<g id="glyph-0-6-bfc1dc0f">
<path d="M 7.21875 -3.03125 C 7.21875 -3.03125 0.953125 -3.03125 0.953125 -3.03125 C 0.953125 -3.03125 0.953125 -3.96875 0.953125 -3.96875 C 0.953125 -3.96875 7.21875 -3.96875 7.21875 -3.96875 C 7.21875 -3.96875 7.21875 -3.03125 7.21875 -3.03125 Z M 7.21875 -3.03125 "/>
</g>
<g id="glyph-0-7-bfc1dc0f">
<path d="M 7.078125 -2.890625 C 7.078125 -1.015625 5.765625 0.203125 3.71875 0.203125 C 1.6875 0.203125 0.609375 -0.78125 0.453125 -3 C 0.453125 -3 1.6875 -3 1.6875 -3 C 1.765625 -1.546875 2.421875 -0.875 3.765625 -0.875 C 5.046875 -0.875 5.828125 -1.625 5.828125 -2.875 C 5.828125 -3.96875 5.125 -4.625 3.765625 -4.625 C 3.765625 -4.625 3.09375 -4.625 3.09375 -4.625 C 3.09375 -4.625 3.09375 -5.65625 3.09375 -5.65625 C 5.0625 -5.65625 5.53125 -6.09375 5.53125 -7.15625 C 5.53125 -8.203125 4.875 -8.84375 3.78125 -8.84375 C 2.515625 -8.84375 1.921875 -8.1875 1.890625 -6.71875 C 1.890625 -6.71875 0.65625 -6.71875 0.65625 -6.71875 C 0.703125 -8.828125 1.765625 -9.921875 3.765625 -9.921875 C 5.65625 -9.921875 6.796875 -8.90625 6.796875 -7.203125 C 6.796875 -6.203125 6.328125 -5.5625 5.40625 -5.1875 C 6.59375 -4.78125 7.078125 -4.09375 7.078125 -2.890625 Z M 7.078125 -2.890625 "/>
</g>
<g id="glyph-0-8-bfc1dc0f">
<path d="M 7.28125 -2.375 C 7.28125 -2.375 5.8125 -2.375 5.8125 -2.375 C 5.8125 -2.375 5.8125 0 5.8125 0 C 5.8125 0 4.578125 0 4.578125 0 C 4.578125 0 4.578125 -2.375 4.578125 -2.375 C 4.578125 -2.375 0.390625 -2.375 0.390625 -2.375 C 0.390625 -2.375 0.390625 -3.6875 0.390625 -3.6875 C 0.390625 -3.6875 4.90625 -9.921875 4.90625 -9.921875 C 4.90625 -9.921875 5.8125 -9.921875 5.8125 -9.921875 C 5.8125 -9.921875 5.8125 -3.484375 5.8125 -3.484375 C 5.8125 -3.484375 7.28125 -3.484375 7.28125 -3.484375 C 7.28125 -3.484375 7.28125 -2.375 7.28125 -2.375 Z M 4.578125 -3.484375 C 4.578125 -3.484375 4.578125 -7.828125 4.578125 -7.828125 C 4.578125 -7.828125 1.46875 -3.484375 1.46875 -3.484375 C 1.46875 -3.484375 4.578125 -3.484375 4.578125 -3.484375 Z M 4.578125 -3.484375 "/>
</g>
<g id="glyph-1-0-bfc1dc0f">
<path d="M 7.09375 -4.78125 C 7.09375 -1.515625 5.953125 0.203125 3.84375 0.203125 C 1.71875 0.203125 0.609375 -1.515625 0.609375 -4.859375 C 0.609375 -8.1875 1.703125 -9.921875 3.84375 -9.921875 C 6 -9.921875 7.09375 -8.21875 7.09375 -4.78125 Z M 5.84375 -4.890625 C 5.84375 -7.546875 5.1875 -8.828125 3.84375 -8.828125 C 2.515625 -8.828125 1.859375 -7.5625 1.859375 -4.84375 C 1.859375 -2.125 2.515625 -0.8125 3.828125 -0.8125 C 5.1875 -0.8125 5.84375 -2.078125 5.84375 -4.890625 Z M 5.84375 -4.890625 "/>
</g>
<g id="glyph-2-0-bfc1dc0f">
<path d="M 7.09375 -4.78125 C 7.09375 -1.515625 5.953125 0.203125 3.84375 0.203125 C 1.71875 0.203125 0.609375 -1.515625 0.609375 -4.859375 C 0.609375 -8.1875 1.703125 -9.921875 3.84375 -9.921875 C 6 -9.921875 7.09375 -8.21875 7.09375 -4.78125 Z M 5.84375 -4.890625 C 5.84375 -7.546875 5.1875 -8.828125 3.84375 -8.828125 C 2.515625 -8.828125 1.859375 -7.5625 1.859375 -4.84375 C 1.859375 -2.125 2.515625 -0.8125 3.828125 -0.8125 C 5.1875 -0.8125 5.84375 -2.078125 5.84375 -4.890625 Z M 5.84375 -4.890625 "/>
</g>
<g id="glyph-3-0-bfc1dc0f">
<path d="M 2.96875 -2.296875 C 2.96875 -2.296875 2.96875 -1.34375 2.96875 -1.34375 C 2.96875 -1.34375 -10.203125 -1.34375 -10.203125 -1.34375 C -10.203125 -1.34375 -10.203125 -2.296875 -10.203125 -2.296875 C -10.203125 -2.296875 2.96875 -2.296875 2.96875 -2.296875 Z M 2.96875 -2.296875 "/>
</g>
<g id="glyph-4-0-bfc1dc0f">
<path d="M 1.03125 -6.828125 C 2.21875 -6.828125 3.125 -5.84375 3.125 -4.640625 C 3.125 -4.640625 2.171875 -4.640625 2.171875 -4.640625 C 2.171875 -5.234375 1.640625 -5.6875 1.03125 -5.6875 C 0.453125 -5.6875 -0.046875 -5.21875 -0.046875 -4.640625 C -0.046875 -4.640625 -0.046875 -4.125 -0.046875 -4.125 C -0.046875 -2.28125 -1.734375 -0.953125 -3.671875 -0.953125 C -6.03125 -0.953125 -8.125 -2.265625 -9.296875 -4.234375 C -9.296875 -4.234375 -9.296875 -0.953125 -9.296875 -0.953125 C -9.296875 -0.953125 -10.15625 -0.953125 -10.15625 -0.953125 C -10.15625 -0.953125 -10.15625 -6.828125 -10.15625 -6.828125 C -10.15625 -6.828125 -9.296875 -6.828125 -9.296875 -6.828125 C -9.296875 -6.828125 -9.296875 -6.125 -9.296875 -6.125 C -8.578125 -3.703125 -6.25 -2.09375 -3.671875 -2.09375 C -2.34375 -2.09375 -1.109375 -2.890625 -1.109375 -4.125 C -1.109375 -4.125 -1.109375 -4.640625 -1.109375 -4.640625 C -1.109375 -5.859375 -0.15625 -6.828125 1.03125 -6.828125 Z M 1.03125 -6.828125 "/>
</g>
<g id="glyph-5-0-bfc1dc0f">
<path d="M 2.96875 -2.296875 C 2.96875 -2.296875 2.96875 -1.34375 2.96875 -1.34375 C 2.96875 -1.34375 -10.203125 -1.34375 -10.203125 -1.34375 C -10.203125 -1.34375 -10.203125 -2.296875 -10.203125 -2.296875 C -10.203125 -2.296875 2.96875 -2.296875 2.96875 -2.296875 Z M 2.96875 -2.296875 "/>
</g>
<g id="glyph-6-0-bfc1dc0f">
<path d="M 2.671875 0 C 2.671875 0 1.21875 0 1.21875 0 C 1.21875 0 1.21875 -1.453125 1.21875 -1.453125 C 1.21875 -1.453125 2.671875 -1.453125 2.671875 -1.453125 C 2.671875 -1.453125 2.671875 0 2.671875 0 Z M 2.671875 0 "/>
</g>
<g id="glyph-7-0-bfc1dc0f">
<path d="M 7.078125 -2.890625 C 7.078125 -1.015625 5.765625 0.203125 3.71875 0.203125 C 1.6875 0.203125 0.609375 -0.78125 0.453125 -3 C 0.453125 -3 1.6875 -3 1.6875 -3 C 1.765625 -1.546875 2.421875 -0.875 3.765625 -0.875 C 5.046875 -0.875 5.828125 -1.625 5.828125 -2.875 C 5.828125 -3.96875 5.125 -4.625 3.765625 -4.625 C 3.765625 -4.625 3.09375 -4.625 3.09375 -4.625 C 3.09375 -4.625 3.09375 -5.65625 3.09375 -5.65625 C 5.0625 -5.65625 5.53125 -6.09375 5.53125 -7.15625 C 5.53125 -8.203125 4.875 -8.84375 3.78125 -8.84375 C 2.515625 -8.84375 1.921875 -8.1875 1.890625 -6.71875 C 1.890625 -6.71875 0.65625 -6.71875 0.65625 -6.71875 C 0.703125 -8.828125 1.765625 -9.921875 3.765625 -9.921875 C 5.65625 -9.921875 6.796875 -8.90625 6.796875 -7.203125 C 6.796875 -6.203125 6.328125 -5.5625 5.40625 -5.1875 C 6.59375 -4.78125 7.078125 -4.09375 7.078125 -2.890625 Z M 7.078125 -2.890625 "/>
</g>
</g>
</defs>
<rect x="-60" y="-45" width="720" height="540" fill="rgb(100%, 100%, 100%)" fill-opacity="1"/>
<path fill-rule="nonzero" fill="rgb(100%, 100%, 100%)" fill-opacity="1" d="M 54 391 L 219 391 L 219 16 L 54 16 Z M 54 391 "/>
<path fill-rule="nonzero" fill="rgb(100%, 100%, 100%)" fill-opacity="1" d="M 237 391 L 401 391 L 401 16 L 237 16 Z M 237 391 "/>
<path fill-rule="nonzero" fill="rgb(100%, 100%, 100%)" fill-opacity="1" d="M 419 391 L 584 391 L 584 16 L 419 16 Z M 419 391 "/>
<path fill="none" stroke-width="1" stroke-linecap="butt" stroke-linejoin="miter" stroke="rgb(0%, 0%, 0%)" stroke-opacity="0.12" stroke-miterlimit="1.154701" d="M 71.199219 391 L 71.199219 16 "/>
<path fill="none" stroke-width="1" stroke-linecap="butt" stroke-linejoin="miter" stroke="rgb(0%, 0%, 0%)" stroke-opacity="0.12" stroke-miterlimit="1.154701" d="M 124.664062 391 L 124.664062 16 "/>
<path fill="none" stroke-width="1" stroke-linecap="butt" stroke-linejoin="miter" stroke="rgb(0%, 0%, 0%)" stroke-opacity="0.12" stroke-miterlimit="1.154701" d="M 178.128906 391 L 178.128906 16 "/>
<path fill="none" stroke-width="1" stroke-linecap="butt" stroke-linejoin="miter" stroke="rgb(0%, 0%, 0%)" stroke-opacity="0.12" stroke-miterlimit="1.154701" d="M 54 374.085938 L 219 374.085938 "/>
<path fill="none" stroke-width="1" stroke-linecap="butt" stroke-linejoin="miter" stroke="rgb(0%, 0%, 0%)" stroke-opacity="0.12" stroke-miterlimit="1.154701" d="M 54 248.828125 L 219 248.828125 "/>
<path fill="none" stroke-width="1" stroke-linecap="butt" stroke-linejoin="miter" stroke="rgb(0%, 0%, 0%)" stroke-opacity="0.12" stroke-miterlimit="1.154701" d="M 54 123.570312 L 219 123.570312 "/>
<path fill="none" stroke-width="1" stroke-linecap="butt" stroke-linejoin="miter" stroke="rgb(0%, 0%, 0%)" stroke-opacity="0.12" stroke-miterlimit="1.154701" d="M 249.800781 391 L 249.800781 16 "/>
<path fill="none" stroke-width="1" stroke-linecap="butt" stroke-linejoin="miter" stroke="rgb(0%, 0%, 0%)" stroke-opacity="0.12" stroke-miterlimit="1.154701" d="M 283.617188 391 L 283.617188 16 "/>
<path fill="none" stroke-width="1" stroke-linecap="butt" stroke-linejoin="miter" stroke="rgb(0%, 0%, 0%)" stroke-opacity="0.12" stroke-miterlimit="1.154701" d="M 317.4375 391 L 317.4375 16 "/>
<path fill="none" stroke-width="1" stroke-linecap="butt" stroke-linejoin="miter" stroke="rgb(0%, 0%, 0%)" stroke-opacity="0.12" stroke-miterlimit="1.154701" d="M 351.253906 391 L 351.253906 16 "/>
<path fill="none" stroke-width="1" stroke-linecap="butt" stroke-linejoin="miter" stroke="rgb(0%, 0%, 0%)" stroke-opacity="0.12" stroke-miterlimit="1.154701" d="M 385.074219 391 L 385.074219 16 "/>
<path fill="none" stroke-width="1" stroke-linecap="butt" stroke-linejoin="miter" stroke="rgb(0%, 0%, 0%)" stroke-opacity="0.12" stroke-miterlimit="1.154701" d="M 237 374.085938 L 401 374.085938 "/>
<path fill="none" stroke-width="1" stroke-linecap="butt" stroke-linejoin="miter" stroke="rgb(0%, 0%, 0%)" stroke-opacity="0.12" stroke-miterlimit="1.154701" d="M 237 248.828125 L 401 248.828125 "/>
<path fill="none" stroke-width="1" stroke-linecap="butt" stroke-linejoin="miter" stroke="rgb(0%, 0%, 0%)" stroke-opacity="0.12" stroke-miterlimit="1.154701" d="M 237 123.570312 L 401 123.570312 "/>
<path fill="none" stroke-width="1" stroke-linecap="butt" stroke-linejoin="miter" stroke="rgb(0%, 0%, 0%)" stroke-opacity="0.12" stroke-miterlimit="1.154701" d="M 439.21875 391 L 439.21875 16 "/>
<path fill="none" stroke-width="1" stroke-linecap="butt" stroke-linejoin="miter" stroke="rgb(0%, 0%, 0%)" stroke-opacity="0.12" stroke-miterlimit="1.154701" d="M 482.667969 391 L 482.667969 16 "/>
<path fill="none" stroke-width="1" stroke-linecap="butt" stroke-linejoin="miter" stroke="rgb(0%, 0%, 0%)" stroke-opacity="0.12" stroke-miterlimit="1.154701" d="M 526.117188 391 L 526.117188 16 "/>
<path fill="none" stroke-width="1" stroke-linecap="butt" stroke-linejoin="miter" stroke="rgb(0%, 0%, 0%)" stroke-opacity="0.12" stroke-miterlimit="1.154701" d="M 569.5625 391 L 569.5625 16 "/>
<path fill="none" stroke-width="1" stroke-linecap="butt" stroke-linejoin="miter" stroke="rgb(0%, 0%, 0%)" stroke-opacity="0.12" stroke-miterlimit="1.154701" d="M 419 374.085938 L 584 374.085938 "/>
<path fill="none" stroke-width="1" stroke-linecap="butt" stroke-linejoin="miter" stroke="rgb(0%, 0%, 0%)" stroke-opacity="0.12" stroke-miterlimit="1.154701" d="M 419 248.828125 L 584 248.828125 "/>
<path fill="none" stroke-width="1" stroke-linecap="butt" stroke-linejoin="miter" stroke="rgb(0%, 0%, 0%)" stroke-opacity="0.12" stroke-miterlimit="1.154701" d="M 419 123.570312 L 584 123.570312 "/>
<g fill="rgb(0%, 0%, 0%)" fill-opacity="1">
<use xlink:href="#glyph-0-0-bfc1dc0f" x="128.541003" y="431.567999"/>
<use xlink:href="#glyph-0-1-bfc1dc0f" x="136.675004" y="431.567999"/>
</g>
<g fill="rgb(0%, 0%, 0%)" fill-opacity="1">
<use xlink:href="#glyph-1-0-bfc1dc0f" x="61.467969" y="412.257999"/>
</g>
<g fill="rgb(0%, 0%, 0%)" fill-opacity="1">
<use xlink:href="#glyph-0-2-bfc1dc0f" x="69.25197" y="412.257999"/>
<use xlink:href="#glyph-0-3-bfc1dc0f" x="73.143969" y="412.257999"/>
</g>
<g fill="rgb(0%, 0%, 0%)" fill-opacity="1">
<use xlink:href="#glyph-0-1-bfc1dc0f" x="114.932883" y="412.257999"/>
<use xlink:href="#glyph-0-2-bfc1dc0f" x="122.716883" y="412.257999"/>
</g>
<g fill="rgb(0%, 0%, 0%)" fill-opacity="1">
<use xlink:href="#glyph-2-0-bfc1dc0f" x="126.608883" y="412.257999"/>
</g>
<g fill="rgb(0%, 0%, 0%)" fill-opacity="1">
<use xlink:href="#glyph-0-1-bfc1dc0f" x="168.397797" y="412.257999"/>
<use xlink:href="#glyph-0-2-bfc1dc0f" x="176.181797" y="412.257999"/>
<use xlink:href="#glyph-0-3-bfc1dc0f" x="180.073797" y="412.257999"/>
</g>
<g fill="rgb(0%, 0%, 0%)" fill-opacity="1">
<use xlink:href="#glyph-3-0-bfc1dc0f" x="28.164" y="210.793993"/>
</g>
<g fill="rgb(0%, 0%, 0%)" fill-opacity="1">
<use xlink:href="#glyph-4-0-bfc1dc0f" x="28.164" y="207.153993"/>
</g>
<g fill="rgb(0%, 0%, 0%)" fill-opacity="1">
<use xlink:href="#glyph-5-0-bfc1dc0f" x="28.164001" y="199.845994"/>
</g>
<g fill="rgb(0%, 0%, 0%)" fill-opacity="1">
<use xlink:href="#glyph-0-4-bfc1dc0f" x="36.216001" y="379.189821"/>
</g>
<g fill="rgb(0%, 0%, 0%)" fill-opacity="1">
<use xlink:href="#glyph-0-1-bfc1dc0f" x="36.216001" y="253.930617"/>
</g>
<g fill="rgb(0%, 0%, 0%)" fill-opacity="1">
<use xlink:href="#glyph-0-5-bfc1dc0f" x="36.216001" y="128.671413"/>
</g>
<path fill="none" stroke-width="1.5" stroke-linecap="butt" stroke-linejoin="miter" stroke="rgb(0%, 44.705883%, 69.803923%)" stroke-opacity="1" stroke-miterlimit="2" d="M 61.5 35.308594 L 62.984375 45.027344 L 71.304688 100.046875 L 76.980469 137.558594 L 81.585938 167.570312 L 86.210938 197.152344 L 91.835938 232.195312 L 94.140625 246.222656 L 96.445312 260.042969 L 98.753906 273.664062 L 101.058594 287.066406 L 103.875 303.117188 L 106.6875 318.835938 L 108.996094 331.472656 L 111.300781 343.886719 L 112.707031 351.34375 L 114.113281 358.714844 L 114.816406 362.371094 L 115.519531 366.007812 L 115.871094 367.820312 L 116.222656 369.625 L 116.574219 371.425781 L 116.925781 373.21875 L 117.070312 373.953125 L 117.210938 373.484375 L 118.078125 369.101562 L 118.652344 366.199219 L 119.230469 363.308594 L 120.382812 357.566406 L 121.53125 351.878906 L 123.84375 340.632812 L 126.152344 329.597656 L 128.964844 316.441406 L 131.78125 303.582031 L 136.390625 283.132812 L 141 263.445312 L 143.816406 251.785156 L 146.628906 240.382812 L 148.9375 231.230469 L 151.246094 222.242188 L 156.871094 201.019531 L 161.480469 184.308594 L 166.097656 168.164062 L 171.722656 149.234375 L 176.335938 134.304688 L 181.957031 116.785156 L 186.566406 102.949219 L 191.1875 89.515625 L 196.8125 73.746094 L 201.398438 61.34375 L 209.785156 39.605469 L 211.5 35.308594 "/>
<path fill="none" stroke-width="1.5" stroke-linecap="butt" stroke-linejoin="miter" stroke="rgb(0%, 44.705883%, 69.803923%)" stroke-opacity="1" stroke-miterlimit="1.154701" d="M 101.5 289.601562 L 134.914062 289.601562 "/>
<path fill="none" stroke-width="1.5" stroke-linecap="butt" stroke-linejoin="miter" stroke="rgb(0%, 44.705883%, 69.803923%)" stroke-opacity="1" stroke-miterlimit="1.154701" d="M 88.820312 213.5625 L 153.515625 213.5625 "/>
<path fill="none" stroke-width="1.5" stroke-linecap="butt" stroke-linejoin="miter" stroke="rgb(0%, 44.705883%, 69.803923%)" stroke-opacity="1" stroke-miterlimit="1.154701" d="M 81.660156 168.054688 L 166.128906 168.054688 "/>
<path fill="none" stroke-width="1.5" stroke-linecap="butt" stroke-linejoin="miter" stroke="rgb(0%, 44.705883%, 69.803923%)" stroke-opacity="1" stroke-miterlimit="1.154701" d="M 75.617188 128.582031 L 178.148438 128.582031 "/>
<path fill="none" stroke-width="1.5" stroke-linecap="butt" stroke-linejoin="miter" stroke="rgb(0%, 44.705883%, 69.803923%)" stroke-opacity="1" stroke-miterlimit="1.154701" d="M 63.960938 51.441406 L 205.164062 51.441406 "/>
<g fill="rgb(0%, 0%, 0%)" fill-opacity="1">
<use xlink:href="#glyph-0-0-bfc1dc0f" x="311.041008" y="431.567999"/>
<use xlink:href="#glyph-0-5-bfc1dc0f" x="319.175008" y="431.567999"/>
</g>
<g fill="rgb(0%, 0%, 0%)" fill-opacity="1">
<use xlink:href="#glyph-0-6-bfc1dc0f" x="235.981444" y="412.257999"/>
<use xlink:href="#glyph-0-4-bfc1dc0f" x="244.157444" y="412.257999"/>
</g>
<g fill="rgb(0%, 0%, 0%)" fill-opacity="1">
<use xlink:href="#glyph-6-0-bfc1dc0f" x="251.941444" y="412.257999"/>
</g>
<g fill="rgb(0%, 0%, 0%)" fill-opacity="1">
<use xlink:href="#glyph-0-5-bfc1dc0f" x="255.833444" y="412.257999"/>
</g>
<g fill="rgb(0%, 0%, 0%)" fill-opacity="1">
<use xlink:href="#glyph-0-6-bfc1dc0f" x="269.799988" y="412.257999"/>
<use xlink:href="#glyph-0-4-bfc1dc0f" x="277.975987" y="412.257999"/>
<use xlink:href="#glyph-0-2-bfc1dc0f" x="285.759987" y="412.257999"/>
<use xlink:href="#glyph-0-1-bfc1dc0f" x="289.651987" y="412.257999"/>
</g>
<g fill="rgb(0%, 0%, 0%)" fill-opacity="1">
<use xlink:href="#glyph-0-4-bfc1dc0f" x="307.706562" y="412.257999"/>
<use xlink:href="#glyph-0-2-bfc1dc0f" x="315.490562" y="412.257999"/>
<use xlink:href="#glyph-0-4-bfc1dc0f" x="319.382562" y="412.257999"/>
</g>
<g fill="rgb(0%, 0%, 0%)" fill-opacity="1">
<use xlink:href="#glyph-0-4-bfc1dc0f" x="341.525105" y="412.257999"/>
<use xlink:href="#glyph-0-2-bfc1dc0f" x="349.309105" y="412.257999"/>
<use xlink:href="#glyph-0-1-bfc1dc0f" x="353.201105" y="412.257999"/>
</g>
<g fill="rgb(0%, 0%, 0%)" fill-opacity="1">
<use xlink:href="#glyph-0-4-bfc1dc0f" x="375.343679" y="412.257999"/>
<use xlink:href="#glyph-0-2-bfc1dc0f" x="383.127679" y="412.257999"/>
<use xlink:href="#glyph-0-5-bfc1dc0f" x="387.019679" y="412.257999"/>
</g>
<path fill="none" stroke-width="1.5" stroke-linecap="butt" stroke-linejoin="miter" stroke="rgb(0%, 44.705883%, 69.803923%)" stroke-opacity="1" stroke-miterlimit="2" d="M 244.453125 35.308594 L 245.929688 40.113281 L 254.199219 68.003906 L 259.84375 88.054688 L 264.417969 104.933594 L 269.015625 122.472656 L 274.605469 144.601562 L 279.1875 163.402344 L 283.773438 182.820312 L 289.367188 207.320312 L 293.953125 228.058594 L 299.542969 254.09375 L 304.125 276.03125 L 308.714844 298.523438 L 314.308594 326.515625 L 316.601562 338.152344 L 318.890625 349.875 L 320.039062 355.761719 L 321.183594 361.667969 L 321.753906 364.625 L 322.328125 367.589844 L 322.613281 369.070312 L 322.902344 370.554688 L 323.1875 372.039062 L 323.472656 373.527344 L 323.648438 373.738281 L 323.824219 372.832031 L 324 371.921875 L 324.171875 371.015625 L 324.523438 369.195312 L 324.871094 367.375 L 325.570312 363.730469 L 326.273438 360.085938 L 327.671875 352.773438 L 329.070312 345.449219 L 331.363281 333.417969 L 333.65625 321.367188 L 339.246094 291.988281 L 343.828125 268 L 348.417969 244.152344 L 354.011719 215.457031 L 358.59375 192.347656 L 364.183594 164.8125 L 368.761719 142.839844 L 373.359375 121.394531 L 376.152344 108.671875 L 378.949219 96.195312 L 381.226562 86.222656 L 383.503906 76.421875 L 387.671875 58.9375 L 391.84375 42.050781 L 392.695312 38.675781 L 393.546875 35.324219 "/>
<path fill="none" stroke-width="1.5" stroke-linecap="butt" stroke-linejoin="miter" stroke="rgb(0%, 44.705883%, 69.803923%)" stroke-opacity="1" stroke-miterlimit="1.154701" d="M 306.90625 289.601562 L 339.703125 289.601562 "/>
<path fill="none" stroke-width="1.5" stroke-linecap="butt" stroke-linejoin="miter" stroke="rgb(0%, 44.705883%, 69.803923%)" stroke-opacity="1" stroke-miterlimit="1.154701" d="M 290.761719 213.5625 L 354.382812 213.5625 "/>
<path fill="none" stroke-width="1.5" stroke-linecap="butt" stroke-linejoin="miter" stroke="rgb(0%, 44.705883%, 69.803923%)" stroke-opacity="1" stroke-miterlimit="1.154701" d="M 280.300781 168.054688 L 363.515625 168.054688 "/>
<path fill="none" stroke-width="1.5" stroke-linecap="butt" stroke-linejoin="miter" stroke="rgb(0%, 44.705883%, 69.803923%)" stroke-opacity="1" stroke-miterlimit="1.154701" d="M 270.582031 128.582031 L 371.800781 128.582031 "/>
<path fill="none" stroke-width="1.5" stroke-linecap="butt" stroke-linejoin="miter" stroke="rgb(0%, 44.705883%, 69.803923%)" stroke-opacity="1" stroke-miterlimit="1.154701" d="M 249.351562 51.441406 L 389.503906 51.441406 "/>
<g fill="rgb(0%, 0%, 0%)" fill-opacity="1">
<use xlink:href="#glyph-0-0-bfc1dc0f" x="493.541012" y="431.567999"/>
</g>
<g fill="rgb(0%, 0%, 0%)" fill-opacity="1">
<use xlink:href="#glyph-7-0-bfc1dc0f" x="501.675012" y="431.567999"/>
</g>
<g fill="rgb(0%, 0%, 0%)" fill-opacity="1">
<use xlink:href="#glyph-0-4-bfc1dc0f" x="429.489829" y="412.257999"/>
<use xlink:href="#glyph-0-2-bfc1dc0f" x="437.273829" y="412.257999"/>
<use xlink:href="#glyph-0-1-bfc1dc0f" x="441.165829" y="412.257999"/>
</g>
<g fill="rgb(0%, 0%, 0%)" fill-opacity="1">
<use xlink:href="#glyph-0-4-bfc1dc0f" x="472.938011" y="412.257999"/>
<use xlink:href="#glyph-0-2-bfc1dc0f" x="480.722011" y="412.257999"/>
<use xlink:href="#glyph-0-5-bfc1dc0f" x="484.614011" y="412.257999"/>
</g>
<g fill="rgb(0%, 0%, 0%)" fill-opacity="1">
<use xlink:href="#glyph-0-4-bfc1dc0f" x="516.386224" y="412.257999"/>
<use xlink:href="#glyph-0-2-bfc1dc0f" x="524.170224" y="412.257999"/>
<use xlink:href="#glyph-0-7-bfc1dc0f" x="528.062224" y="412.257999"/>
</g>
<g fill="rgb(0%, 0%, 0%)" fill-opacity="1">
<use xlink:href="#glyph-0-4-bfc1dc0f" x="559.834467" y="412.257999"/>
<use xlink:href="#glyph-0-2-bfc1dc0f" x="567.618467" y="412.257999"/>
<use xlink:href="#glyph-0-8-bfc1dc0f" x="571.510467" y="412.257999"/>
</g>
<path fill="none" stroke-width="1.5" stroke-linecap="butt" stroke-linejoin="miter" stroke="rgb(0%, 44.705883%, 69.803923%)" stroke-opacity="1" stroke-miterlimit="2" d="M 426.5 33.046875 L 426.871094 33.910156 L 427.242188 34.785156 L 427.613281 35.679688 L 427.984375 36.585938 L 430.066406 41.945312 L 432.144531 47.796875 L 434.222656 54.160156 L 436.304688 61.050781 L 437.722656 66.0625 L 439.140625 71.335938 L 440.5625 76.859375 L 441.980469 82.640625 L 444.285156 92.5625 L 446.585938 103.144531 L 448.898438 114.414062 L 451.210938 126.285156 L 454.023438 141.464844 L 456.835938 157.359375 L 459.140625 170.835938 L 461.445312 184.640625 L 463.753906 198.71875 L 466.058594 212.988281 L 471.6875 248.210938 L 476.300781 277.082031 L 481.925781 311.734375 L 486.53125 339.417969 L 487.6875 346.234375 L 488.84375 353 L 490 359.707031 L 491.152344 366.363281 L 491.855469 370.386719 L 492.382812 373.386719 L 492.558594 373.785156 L 492.910156 371.792969 L 493.613281 367.824219 L 493.964844 365.847656 L 495.375 358 L 496.78125 350.234375 L 499.085938 337.703125 L 501.390625 325.410156 L 503.695312 313.363281 L 506 301.558594 L 508.816406 287.46875 L 511.628906 273.730469 L 513.9375 262.722656 L 516.246094 251.945312 L 519.058594 239.117188 L 521.871094 226.609375 L 524.175781 216.589844 L 526.480469 206.78125 L 528.789062 197.15625 L 531.097656 187.730469 L 533.910156 176.496094 L 536.722656 165.539062 L 541.335938 148.144531 L 546.957031 127.863281 L 551.566406 111.941406 L 556.1875 96.5625 L 561.8125 78.613281 L 566.398438 64.570312 L 574.785156 40.117188 L 576.5 35.308594 "/>
<path fill="none" stroke-width="1.5" stroke-linecap="butt" stroke-linejoin="miter" stroke="rgb(0%, 44.705883%, 69.803923%)" stroke-opacity="1" stroke-miterlimit="1.154701" d="M 478.320312 289.601562 L 508.386719 289.601562 "/>
<path fill="none" stroke-width="1.5" stroke-linecap="butt" stroke-linejoin="miter" stroke="rgb(0%, 44.705883%, 69.803923%)" stroke-opacity="1" stroke-miterlimit="1.154701" d="M 466.152344 213.5625 L 524.882812 213.5625 "/>
<path fill="none" stroke-width="1.5" stroke-linecap="butt" stroke-linejoin="miter" stroke="rgb(0%, 44.705883%, 69.803923%)" stroke-opacity="1" stroke-miterlimit="1.154701" d="M 458.671875 168.054688 L 536.070312 168.054688 "/>
<path fill="none" stroke-width="1.5" stroke-linecap="butt" stroke-linejoin="miter" stroke="rgb(0%, 44.705883%, 69.803923%)" stroke-opacity="1" stroke-miterlimit="1.154701" d="M 451.628906 128.582031 L 546.753906 128.582031 "/>
<path fill="none" stroke-width="1.5" stroke-linecap="butt" stroke-linejoin="miter" stroke="rgb(0%, 44.705883%, 69.803923%)" stroke-opacity="1" stroke-miterlimit="1.154701" d="M 434.078125 51.441406 L 570.835938 51.441406 "/>
<path fill="none" stroke-width="1" stroke-linecap="butt" stroke-linejoin="miter" stroke="rgb(0%, 0%, 0%)" stroke-opacity="1" stroke-miterlimit="1.154701" d="M 71.199219 391.5 L 71.199219 396.5 "/>
<path fill="none" stroke-width="1" stroke-linecap="butt" stroke-linejoin="miter" stroke="rgb(0%, 0%, 0%)" stroke-opacity="1" stroke-miterlimit="1.154701" d="M 124.664062 391.5 L 124.664062 396.5 "/>
<path fill="none" stroke-width="1" stroke-linecap="butt" stroke-linejoin="miter" stroke="rgb(0%, 0%, 0%)" stroke-opacity="1" stroke-miterlimit="1.154701" d="M 178.128906 391.5 L 178.128906 396.5 "/>
<path fill="none" stroke-width="1" stroke-linecap="butt" stroke-linejoin="miter" stroke="rgb(0%, 0%, 0%)" stroke-opacity="1" stroke-miterlimit="1.154701" d="M 53.5 374.085938 L 48.5 374.085938 "/>
<path fill="none" stroke-width="1" stroke-linecap="butt" stroke-linejoin="miter" stroke="rgb(0%, 0%, 0%)" stroke-opacity="1" stroke-miterlimit="1.154701" d="M 53.5 248.828125 L 48.5 248.828125 "/>
<path fill="none" stroke-width="1" stroke-linecap="butt" stroke-linejoin="miter" stroke="rgb(0%, 0%, 0%)" stroke-opacity="1" stroke-miterlimit="1.154701" d="M 53.5 123.570312 L 48.5 123.570312 "/>
<path fill="none" stroke-width="1" stroke-linecap="butt" stroke-linejoin="miter" stroke="rgb(0%, 0%, 0%)" stroke-opacity="1" stroke-miterlimit="1.154701" d="M 249.800781 391.5 L 249.800781 396.5 "/>
<path fill="none" stroke-width="1" stroke-linecap="butt" stroke-linejoin="miter" stroke="rgb(0%, 0%, 0%)" stroke-opacity="1" stroke-miterlimit="1.154701" d="M 283.617188 391.5 L 283.617188 396.5 "/>
<path fill="none" stroke-width="1" stroke-linecap="butt" stroke-linejoin="miter" stroke="rgb(0%, 0%, 0%)" stroke-opacity="1" stroke-miterlimit="1.154701" d="M 317.4375 391.5 L 317.4375 396.5 "/>
<path fill="none" stroke-width="1" stroke-linecap="butt" stroke-linejoin="miter" stroke="rgb(0%, 0%, 0%)" stroke-opacity="1" stroke-miterlimit="1.154701" d="M 351.253906 391.5 L 351.253906 396.5 "/>
<path fill="none" stroke-width="1" stroke-linecap="butt" stroke-linejoin="miter" stroke="rgb(0%, 0%, 0%)" stroke-opacity="1" stroke-miterlimit="1.154701" d="M 385.074219 391.5 L 385.074219 396.5 "/>
<path fill="none" stroke-width="1" stroke-linecap="butt" stroke-linejoin="miter" stroke="rgb(0%, 0%, 0%)" stroke-opacity="1" stroke-miterlimit="1.154701" d="M 439.21875 391.5 L 439.21875 396.5 "/>
<path fill="none" stroke-width="1" stroke-linecap="butt" stroke-linejoin="miter" stroke="rgb(0%, 0%, 0%)" stroke-opacity="1" stroke-miterlimit="1.154701" d="M 482.667969 391.5 L 482.667969 396.5 "/>
<path fill="none" stroke-width="1" stroke-linecap="butt" stroke-linejoin="miter" stroke="rgb(0%, 0%, 0%)" stroke-opacity="1" stroke-miterlimit="1.154701" d="M 526.117188 391.5 L 526.117188 396.5 "/>
<path fill="none" stroke-width="1" stroke-linecap="butt" stroke-linejoin="miter" stroke="rgb(0%, 0%, 0%)" stroke-opacity="1" stroke-miterlimit="1.154701" d="M 569.5625 391.5 L 569.5625 396.5 "/>
<path fill="none" stroke-width="1" stroke-linecap="butt" stroke-linejoin="miter" stroke="rgb(0%, 0%, 0%)" stroke-opacity="1" stroke-miterlimit="1.154701" d="M 53.5 391 L 219.5 391 "/>
<path fill="none" stroke-width="1" stroke-linecap="butt" stroke-linejoin="miter" stroke="rgb(0%, 0%, 0%)" stroke-opacity="1" stroke-miterlimit="1.154701" d="M 54 391.5 L 54 15.5 "/>
<path fill="none" stroke-width="1" stroke-linecap="butt" stroke-linejoin="miter" stroke="rgb(0%, 0%, 0%)" stroke-opacity="1" stroke-miterlimit="1.154701" d="M 53.5 16 L 219.5 16 "/>
<path fill="none" stroke-width="1" stroke-linecap="butt" stroke-linejoin="miter" stroke="rgb(0%, 0%, 0%)" stroke-opacity="1" stroke-miterlimit="1.154701" d="M 219 391.5 L 219 15.5 "/>
<path fill="none" stroke-width="1" stroke-linecap="butt" stroke-linejoin="miter" stroke="rgb(0%, 0%, 0%)" stroke-opacity="1" stroke-miterlimit="1.154701" d="M 236.5 391 L 401.5 391 "/>
<path fill="none" stroke-width="1" stroke-linecap="butt" stroke-linejoin="miter" stroke="rgb(0%, 0%, 0%)" stroke-opacity="1" stroke-miterlimit="1.154701" d="M 237 391.5 L 237 15.5 "/>
<path fill="none" stroke-width="1" stroke-linecap="butt" stroke-linejoin="miter" stroke="rgb(0%, 0%, 0%)" stroke-opacity="1" stroke-miterlimit="1.154701" d="M 236.5 16 L 401.5 16 "/>
<path fill="none" stroke-width="1" stroke-linecap="butt" stroke-linejoin="miter" stroke="rgb(0%, 0%, 0%)" stroke-opacity="1" stroke-miterlimit="1.154701" d="M 401 391.5 L 401 15.5 "/>
<path fill="none" stroke-width="1" stroke-linecap="butt" stroke-linejoin="miter" stroke="rgb(0%, 0%, 0%)" stroke-opacity="1" stroke-miterlimit="1.154701" d="M 418.5 391 L 584.5 391 "/>
<path fill="none" stroke-width="1" stroke-linecap="butt" stroke-linejoin="miter" stroke="rgb(0%, 0%, 0%)" stroke-opacity="1" stroke-miterlimit="1.154701" d="M 419 391.5 L 419 15.5 "/>
<path fill="none" stroke-width="1" stroke-linecap="butt" stroke-linejoin="miter" stroke="rgb(0%, 0%, 0%)" stroke-opacity="1" stroke-miterlimit="1.154701" d="M 418.5 16 L 584.5 16 "/>
<path fill="none" stroke-width="1" stroke-linecap="butt" stroke-linejoin="miter" stroke="rgb(0%, 0%, 0%)" stroke-opacity="1" stroke-miterlimit="1.154701" d="M 584 391.5 L 584 15.5 "/>
</svg>
